<svg width="259.034" height="107.667" viewBox="0 0 259.034 107.667" xmlns="http://www.w3.org/2000/svg"><g id="svgGroup" stroke-linecap="round" fill-rule="evenodd" font-size="9pt" stroke="#ffffff" stroke-width="0.25mm" fill="#ffffff" style="stroke:#ffffff;stroke-width:0.25mm;fill:#ffffff"><path d="M 16.895 76.173 L 17.579 75.587 Q 20.069 77.686 23.267 78.98 A 17.379 17.379 0 0 0 28.279 80.212 A 16.067 16.067 0 0 0 29.688 80.274 A 10.647 10.647 0 0 0 34.156 78.517 Q 36.133 77.149 37.501 75.172 Q 38.868 73.194 39.576 70.826 Q 40.284 68.458 40.284 66.065 A 18.364 18.364 0 0 0 39.877 62.107 A 13.621 13.621 0 0 0 38.16 57.813 A 18.421 18.421 0 0 0 32.667 52.149 Q 28.467 53.81 24.073 54.64 Q 19.678 55.47 15.381 55.567 A 285.659 285.659 0 0 0 15.358 59.183 A 271.124 271.124 0 0 0 15.601 70.728 A 507.086 507.086 0 0 0 15.961 77.986 A 432.939 432.939 0 0 0 16.407 84.864 L 15.479 85.157 A 55.075 55.075 0 0 1 13.84 80.076 A 63.015 63.015 0 0 1 13.379 78.272 A 90.35 90.35 0 0 1 11.915 70.753 Q 11.329 66.895 10.962 62.965 A 142.453 142.453 0 0 1 10.45 55.226 A 18.452 18.452 0 0 1 8.082 54.664 A 10.672 10.672 0 0 1 6.682 54.13 A 8.879 8.879 0 0 1 5.933 53.736 A 5.648 5.648 0 0 1 4.978 53.035 A 4.695 4.695 0 0 1 4.395 52.393 A 2.906 2.906 0 0 1 3.848 51.046 A 3.85 3.85 0 0 1 3.809 50.489 A 3.74 3.74 0 0 1 3.917 49.572 A 2.882 2.882 0 0 1 4.371 48.585 A 4.718 4.718 0 0 1 5.367 47.575 A 5.783 5.783 0 0 1 5.86 47.242 A 7.719 7.719 0 0 1 7.251 46.585 A 9.23 9.23 0 0 1 7.959 46.363 Q 9.131 46.046 10.303 45.899 Q 10.303 43.849 10.352 40.87 A 120.651 120.651 0 0 1 10.48 37.004 A 143.869 143.869 0 0 1 10.621 34.547 A 99.822 99.822 0 0 1 11.304 27.76 A 46.386 46.386 0 0 1 12.185 23.026 A 40.16 40.16 0 0 1 12.647 21.29 Q 13.526 18.263 14.844 15.919 Q 16.163 13.575 18.116 12.452 A 11.776 11.776 0 0 1 19.192 11.882 A 13.88 13.88 0 0 1 19.727 11.646 A 4.776 4.776 0 0 1 21.583 11.28 A 2.442 2.442 0 0 1 22.154 11.341 Q 23.096 11.569 23.096 12.647 Q 23.096 13.136 22.974 13.502 A 21.094 21.094 0 0 1 22.777 14.065 A 23.68 23.68 0 0 1 22.706 14.259 A 91.31 91.31 0 0 1 20.972 18.092 Q 20.069 19.972 19.483 22.071 Q 17.969 27.589 17.066 33.521 A 138.168 138.168 0 0 0 15.772 45.704 A 45.385 45.385 0 0 1 21.395 46.208 A 53.985 53.985 0 0 1 24.073 46.681 Q 28.418 47.56 32.52 49.268 Q 35.596 47.413 38.16 44.972 Q 40.723 42.53 42.554 39.552 A 26.232 26.232 0 0 0 45.386 33.155 A 23.052 23.052 0 0 0 46.298 26.643 A 25.638 25.638 0 0 0 46.29 25.977 A 28.011 28.011 0 0 0 45.749 20.362 A 22.377 22.377 0 0 0 44.361 15.919 A 24.014 24.014 0 0 0 41.153 10.51 A 21.355 21.355 0 0 0 39.234 8.399 Q 36.036 5.323 31.934 3.687 A 22.609 22.609 0 0 0 23.487 2.052 A 18.13 18.13 0 0 0 19.309 2.559 A 22.425 22.425 0 0 0 17.188 3.175 Q 13.917 4.298 11.231 6.3 A 17.141 17.141 0 0 0 6.812 11.134 A 11.741 11.741 0 0 0 5.079 17.384 A 9.485 9.485 0 0 0 5.168 18.716 A 7.415 7.415 0 0 0 5.396 19.776 Q 5.713 20.851 6.08 21.729 A 868.898 868.898 0 0 0 6.434 22.578 A 694.992 694.992 0 0 0 6.763 23.365 A 4.127 4.127 0 0 1 7.028 24.255 A 3.495 3.495 0 0 1 7.081 24.854 A 3.462 3.462 0 0 1 6.85 26.136 A 3.176 3.176 0 0 1 6.128 27.223 A 3.151 3.151 0 0 1 3.852 28.175 A 3.9 3.9 0 0 1 3.809 28.175 Q 2.707 28.175 2.009 27.659 A 2.297 2.297 0 0 1 1.807 27.491 A 4.569 4.569 0 0 1 0.841 26.185 A 5.498 5.498 0 0 1 0.66 25.782 A 8.023 8.023 0 0 1 0.123 23.609 A 24.316 24.316 0 0 1 0.039 22.657 Q 0.01 22.222 0.003 21.835 A 13.49 13.49 0 0 1 0.001 21.583 A 15.685 15.685 0 0 1 1.002 15.939 A 14.746 14.746 0 0 1 2.027 13.795 A 23.328 23.328 0 0 1 7.121 7.741 A 26.225 26.225 0 0 1 7.325 7.569 A 39.769 39.769 0 0 1 10.415 5.166 A 34.861 34.861 0 0 1 11.451 4.469 A 26.186 26.186 0 0 1 15.723 2.223 Q 17.92 1.319 20.337 0.855 Q 22.754 0.392 25.489 0.392 A 38.728 38.728 0 0 1 32.074 0.928 A 30.367 30.367 0 0 1 37.354 2.32 A 28.964 28.964 0 0 1 42.913 5.024 A 24.104 24.104 0 0 1 46.29 7.594 A 23.265 23.265 0 0 1 51.929 15.382 Q 53.907 19.825 53.907 24.854 A 26.629 26.629 0 0 1 53.326 30.507 A 22.921 22.921 0 0 1 52.491 33.424 A 27.214 27.214 0 0 1 48.633 40.601 A 29.842 29.842 0 0 1 42.872 46.388 Q 39.551 48.927 35.694 50.782 A 30.467 30.467 0 0 1 40.308 53.883 Q 42.432 55.616 43.995 57.789 Q 45.557 59.962 46.436 62.55 A 16.686 16.686 0 0 1 47.26 66.679 A 19.786 19.786 0 0 1 47.315 68.165 A 15.222 15.222 0 0 1 45.997 74.439 Q 44.678 77.393 42.432 79.664 Q 40.186 81.935 37.232 83.253 A 15.107 15.107 0 0 1 31.006 84.571 A 11.503 11.503 0 0 1 28.55 84.295 A 14.579 14.579 0 0 1 27.002 83.863 Q 24.903 83.155 22.999 81.983 A 21.829 21.829 0 0 1 19.483 79.298 Q 17.872 77.784 16.895 76.173 Z M 132.081 75.685 L 132.374 76.27 A 19.147 19.147 0 0 0 126.625 80.985 A 18.275 18.275 0 0 0 125.049 83.253 A 18.867 18.867 0 0 0 122.467 92.561 A 22.406 22.406 0 0 0 122.461 93.067 A 14.565 14.565 0 0 0 123.072 97.291 A 11.042 11.042 0 0 0 124.467 100.278 A 10.267 10.267 0 0 0 124.903 100.88 A 9.206 9.206 0 0 0 127.955 103.394 A 8.379 8.379 0 0 0 130.669 104.244 A 10.772 10.772 0 0 0 132.178 104.347 A 10.041 10.041 0 0 0 134.769 104.028 A 7.648 7.648 0 0 0 137.696 102.54 Q 139.893 100.733 141.211 98.023 A 22.005 22.005 0 0 0 142.979 92.731 A 24.802 24.802 0 0 0 143.091 92.14 A 37.776 37.776 0 0 0 143.545 88.693 A 30.299 30.299 0 0 0 143.653 86.183 Q 143.653 83.204 143.189 80.323 A 89.897 89.897 0 0 0 142.066 74.561 Q 141.407 71.681 140.723 68.8 A 70.368 70.368 0 0 1 139.6 62.989 A 26.843 26.843 0 0 1 137.403 65.309 Q 136.231 66.407 134.888 67.213 Q 133.545 68.018 132.032 68.482 Q 130.518 68.946 128.858 68.946 A 11.656 11.656 0 0 1 126.657 68.748 A 8.834 8.834 0 0 1 124.488 68.043 A 9.046 9.046 0 0 1 121.338 65.577 A 10.891 10.891 0 0 1 119.539 62.344 A 12.481 12.481 0 0 1 119.41 61.964 A 13.957 13.957 0 0 1 118.77 58.366 A 16.152 16.152 0 0 1 118.751 57.569 Q 118.751 54.933 119.483 52.393 A 20.804 20.804 0 0 1 121.534 47.608 Q 122.852 45.362 124.659 43.409 A 24.106 24.106 0 0 1 128.565 39.991 L 129.151 40.284 A 26.399 26.399 0 0 0 125.855 46.803 Q 124.659 50.294 124.659 53.956 A 16.342 16.342 0 0 0 124.767 55.791 A 20.889 20.889 0 0 0 125.001 57.325 A 13.038 13.038 0 0 0 125.747 59.87 A 11.627 11.627 0 0 0 126.099 60.645 Q 126.856 62.159 128.15 63.16 A 4.732 4.732 0 0 0 130.325 64.082 A 6.374 6.374 0 0 0 131.348 64.161 Q 133.643 64.161 135.645 63.16 Q 137.647 62.159 139.307 60.597 A 44.692 44.692 0 0 1 139.161 56.983 A 39.745 39.745 0 0 1 139.353 53.138 A 45.124 45.124 0 0 1 139.502 51.808 A 23.58 23.58 0 0 1 140.748 46.656 A 16.733 16.733 0 0 1 143.213 42.164 A 11.496 11.496 0 0 1 146.474 39.305 A 13.689 13.689 0 0 1 147.266 38.868 L 147.657 39.063 A 11.832 11.832 0 0 0 145.704 41.773 A 16.459 16.459 0 0 0 144.459 44.874 Q 143.995 46.485 143.824 48.17 A 32.651 32.651 0 0 0 143.653 51.466 A 39.3 39.3 0 0 0 144.006 56.833 A 32.6 32.6 0 0 0 144.556 59.815 A 135.45 135.45 0 0 0 146.558 67.384 A 152.509 152.509 0 0 1 148.56 74.83 A 32.751 32.751 0 0 1 149.426 81.078 A 37.773 37.773 0 0 1 149.463 82.765 Q 149.463 85.548 148.926 88.331 Q 148.389 91.114 147.339 93.726 A 25.077 25.077 0 0 1 144.727 98.609 A 19.337 19.337 0 0 1 141.442 102.303 A 18.07 18.07 0 0 1 141.163 102.54 A 16.424 16.424 0 0 1 136.695 105.177 Q 134.229 106.153 131.348 106.153 A 12.257 12.257 0 0 1 126.27 105.079 A 13.666 13.666 0 0 1 122.095 102.198 Q 120.313 100.392 119.288 97.975 Q 118.262 95.558 118.262 92.872 Q 118.262 89.942 119.459 87.257 A 19.688 19.688 0 0 1 122.608 82.325 A 23.787 23.787 0 0 1 127.027 78.37 A 24.062 24.062 0 0 1 130.794 76.219 A 21.462 21.462 0 0 1 132.081 75.685 Z M 196.485 77.052 L 196.778 77.686 Q 192.042 80.226 189.454 84.669 A 19.147 19.147 0 0 0 186.866 94.483 A 15.063 15.063 0 0 0 187.476 98.756 A 11.248 11.248 0 0 0 188.604 101.367 A 10.005 10.005 0 0 0 189.307 102.393 A 9.206 9.206 0 0 0 192.359 104.908 A 8.379 8.379 0 0 0 195.073 105.758 A 10.772 10.772 0 0 0 196.583 105.86 A 9.804 9.804 0 0 0 199.244 105.514 A 7.77 7.77 0 0 0 202.076 104.054 A 13.028 13.028 0 0 0 205.522 99.704 A 15.03 15.03 0 0 0 205.616 99.513 A 22.349 22.349 0 0 0 207.384 94.176 A 25.188 25.188 0 0 0 207.496 93.58 A 38.898 38.898 0 0 0 207.934 90.313 A 30.034 30.034 0 0 0 208.057 87.647 Q 208.057 83.936 207.349 80.348 Q 206.641 76.759 205.811 73.145 A 220.704 220.704 0 0 1 204.273 65.894 Q 203.565 62.257 203.565 58.448 A 40.878 40.878 0 0 1 203.827 53.893 A 45.137 45.137 0 0 1 203.907 53.224 Q 204.249 50.538 205.152 48.097 A 17.241 17.241 0 0 1 207.618 43.604 A 11.443 11.443 0 0 1 211.025 40.635 A 13.536 13.536 0 0 1 211.67 40.284 L 212.061 40.479 A 11.832 11.832 0 0 0 210.108 43.189 A 16.253 16.253 0 0 0 208.863 46.314 Q 208.399 47.95 208.228 49.635 Q 208.057 51.319 208.057 52.979 A 38.168 38.168 0 0 0 208.484 58.78 A 33.099 33.099 0 0 0 208.96 61.256 A 132.66 132.66 0 0 0 210.962 68.849 A 148.611 148.611 0 0 1 212.964 76.319 A 33.177 33.177 0 0 1 213.836 82.719 A 37.93 37.93 0 0 1 213.868 84.278 A 30.813 30.813 0 0 1 212.988 91.505 A 34.125 34.125 0 0 1 212.867 91.993 Q 211.866 95.899 209.839 99.146 A 19.559 19.559 0 0 1 204.737 104.64 A 15.234 15.234 0 0 1 199.245 107.136 A 18.718 18.718 0 0 1 197.461 107.472 A 9.667 9.667 0 0 1 196.931 107.575 A 7.899 7.899 0 0 1 196.631 107.618 A 6.064 6.064 0 0 1 196.216 107.655 Q 196 107.667 195.76 107.667 A 10.369 10.369 0 0 1 195.752 107.667 A 12.257 12.257 0 0 1 190.674 106.593 A 13.458 13.458 0 0 1 186.5 103.687 A 13.701 13.701 0 0 1 183.692 99.439 A 12.81 12.81 0 0 1 182.667 94.386 Q 182.667 91.456 183.863 88.77 A 20.123 20.123 0 0 1 187.012 83.814 Q 188.965 81.544 191.431 79.81 A 25.098 25.098 0 0 1 195.359 77.534 A 22.453 22.453 0 0 1 196.485 77.052 Z M 258.692 60.792 L 259.034 60.987 A 42.549 42.549 0 0 1 257.056 64.356 A 15.212 15.212 0 0 1 255.093 66.797 A 13.897 13.897 0 0 1 254.688 67.188 Q 253.37 68.409 251.709 69.142 A 8.485 8.485 0 0 1 249.474 69.767 A 11.116 11.116 0 0 1 247.901 69.874 A 8.343 8.343 0 0 1 245.762 69.611 A 6.657 6.657 0 0 1 243.702 68.678 A 10.3 10.3 0 0 1 241.194 66.232 A 12.271 12.271 0 0 1 240.699 65.504 A 17.103 17.103 0 0 1 239.232 62.556 A 20.82 20.82 0 0 1 238.697 60.987 Q 237.94 58.448 237.452 55.811 Q 236.963 53.175 236.719 50.611 L 236.28 45.997 Q 235.352 46.729 234.034 48.805 A 42.512 42.512 0 0 0 232.787 50.906 Q 232.164 52.025 231.53 53.297 A 70.152 70.152 0 0 0 231.348 53.663 A 66.44 66.44 0 0 0 229.687 57.333 A 79.655 79.655 0 0 0 228.736 59.718 Q 227.491 62.989 226.709 66.163 A 7.008 7.008 0 0 1 226.46 67.037 A 8.573 8.573 0 0 1 226.246 67.579 Q 225.928 68.311 225.464 68.922 Q 225.001 69.532 224.366 69.947 A 2.532 2.532 0 0 1 222.95 70.362 A 2.873 2.873 0 0 1 222.242 70.281 A 1.81 1.81 0 0 1 221.119 69.483 A 5.884 5.884 0 0 1 220.435 67.961 A 6.961 6.961 0 0 1 220.313 67.481 A 102.102 102.102 0 0 1 218.877 59.94 A 86.424 86.424 0 0 1 218.335 55.616 Q 217.774 49.952 217.774 44.288 A 6.793 6.793 0 0 1 217.863 43.162 Q 217.977 42.483 218.238 41.92 A 4.917 4.917 0 0 1 219.047 40.681 A 4.478 4.478 0 0 1 219.483 40.26 Q 220.264 39.601 221.338 39.283 A 7.886 7.886 0 0 1 223.584 38.966 L 224.048 38.966 Q 224.366 38.966 224.659 39.039 Q 224.952 39.112 225.147 39.259 A 0.424 0.424 0 0 1 225.242 39.355 Q 225.32 39.467 225.299 39.619 A 0.534 0.534 0 0 1 225.293 39.649 A 64.171 64.171 0 0 0 224.071 52.172 A 66.37 66.37 0 0 0 224.073 52.662 A 135.297 135.297 0 0 0 224.539 63.075 A 120.919 120.919 0 0 0 224.756 65.382 Q 225.293 62.94 226.343 59.84 A 74.913 74.913 0 0 1 228.785 53.59 A 64.679 64.679 0 0 1 231.812 47.584 A 36.352 36.352 0 0 1 233.257 45.257 Q 234.195 43.873 235.157 42.774 A 13.787 13.787 0 0 1 236.151 41.767 A 11.127 11.127 0 0 1 236.841 41.187 A 3.123 3.123 0 0 1 238.246 40.587 A 4.257 4.257 0 0 1 238.965 40.528 Q 239.607 40.528 240.061 40.753 A 1.759 1.759 0 0 1 240.186 40.821 Q 240.674 41.114 240.992 41.554 A 3.305 3.305 0 0 1 241.423 42.382 A 3.811 3.811 0 0 1 241.48 42.555 A 9.959 9.959 0 0 1 241.716 43.485 A 8.948 8.948 0 0 1 241.749 43.653 A 35.953 35.953 0 0 1 241.871 44.413 Q 242.054 45.631 242.237 47.315 A 125.7 125.7 0 0 0 242.512 49.635 A 152.063 152.063 0 0 0 242.847 52.101 A 81.871 81.871 0 0 0 243.751 57.203 A 30.989 30.989 0 0 0 244.447 59.932 A 24.414 24.414 0 0 0 245.118 61.842 A 14.114 14.114 0 0 0 245.909 63.513 Q 246.392 64.371 246.957 65.046 A 8.377 8.377 0 0 0 247.12 65.235 A 4.186 4.186 0 0 0 248.144 66.089 A 3.444 3.444 0 0 0 249.903 66.554 A 6.673 6.673 0 0 0 252.466 66.041 A 11.687 11.687 0 0 0 254.834 64.723 A 14.056 14.056 0 0 0 256.934 62.867 Q 257.911 61.817 258.692 60.792 Z M 178.028 62.403 L 178.467 62.599 A 12.765 12.765 0 0 1 175.251 66.814 A 12.385 12.385 0 0 1 174.073 67.701 A 11.318 11.318 0 0 1 167.964 69.577 A 13.683 13.683 0 0 1 167.627 69.581 A 8.488 8.488 0 0 1 162.305 67.774 A 15.824 15.824 0 0 1 159.502 64.959 A 20.03 20.03 0 0 1 158.179 63.038 A 30.929 30.929 0 0 1 156.071 58.867 A 37.547 37.547 0 0 1 155.152 56.422 A 66.253 66.253 0 0 1 153.101 48.927 A 73.125 73.125 0 0 1 152.14 43.365 A 63.942 63.942 0 0 1 151.929 41.578 A 80.2 80.2 0 0 1 151.706 39.05 Q 151.563 37.049 151.563 35.401 A 70.235 70.235 0 0 1 151.648 32.02 A 92.504 92.504 0 0 1 151.905 28.321 A 72.975 72.975 0 0 1 153.028 20.533 Q 153.809 16.602 155.054 12.892 Q 156.299 9.181 158.082 6.324 A 18.298 18.298 0 0 1 160.134 3.606 A 14.709 14.709 0 0 1 162.208 1.734 Q 164.551 0.001 167.579 0.001 A 7.218 7.218 0 0 1 169.451 0.232 A 5.371 5.371 0 0 1 171.778 1.515 A 10.469 10.469 0 0 1 174.01 4.573 A 12.367 12.367 0 0 1 174.317 5.25 A 18.11 18.11 0 0 1 175.562 9.962 A 43.783 43.783 0 0 1 175.779 12.038 Q 175.861 13.069 175.876 13.987 A 25.102 25.102 0 0 1 175.879 14.405 A 43.612 43.612 0 0 1 174.634 24.781 Q 173.389 29.884 171.216 34.4 Q 169.043 38.917 166.114 42.603 A 35.948 35.948 0 0 1 162.28 46.744 A 30.248 30.248 0 0 1 159.815 48.78 Q 160.499 52.052 161.451 55.152 A 30.713 30.713 0 0 0 162.653 58.424 A 24.317 24.317 0 0 0 163.77 60.67 A 16.107 16.107 0 0 0 165.241 62.855 A 12.259 12.259 0 0 0 166.919 64.576 Q 168.702 66.065 170.997 66.065 A 9.557 9.557 0 0 0 172.883 65.888 A 7.069 7.069 0 0 0 174.952 65.138 A 9.251 9.251 0 0 0 176.79 63.771 A 12.418 12.418 0 0 0 178.028 62.403 Z M 120.752 60.792 L 121.192 60.987 Q 120.313 62.94 118.97 64.503 A 16.246 16.246 0 0 1 116.691 66.699 A 14.645 14.645 0 0 1 116.065 67.164 A 14.354 14.354 0 0 1 113.564 68.583 A 12.921 12.921 0 0 1 112.842 68.873 A 10.316 10.316 0 0 1 111.12 69.349 A 8.148 8.148 0 0 1 109.668 69.483 A 13.657 13.657 0 0 1 107.532 69.325 Q 106.375 69.142 105.409 68.745 A 7.787 7.787 0 0 1 104.883 68.507 Q 102.93 67.53 101.709 65.87 A 10.241 10.241 0 0 1 100.274 63.083 A 12.464 12.464 0 0 1 99.952 61.964 A 19.799 19.799 0 0 1 99.448 58.43 A 23.01 23.01 0 0 1 99.415 57.179 A 28.661 28.661 0 0 1 99.608 53.908 A 32.494 32.494 0 0 1 99.708 53.126 A 31.89 31.89 0 0 1 100.538 49.073 A 6.057 6.057 0 0 0 100.611 48.836 Q 100.672 48.625 100.733 48.365 Q 100.831 47.95 100.831 47.657 Q 100.831 47.43 100.577 47.287 A 0.916 0.916 0 0 0 100.538 47.267 A 31.032 31.032 0 0 0 99.238 46.841 A 35.639 35.639 0 0 0 98.78 46.705 Q 97.852 46.436 96.949 46.095 Q 96.045 45.753 95.24 45.313 A 4.916 4.916 0 0 1 93.848 44.19 A 20.937 20.937 0 0 1 93.09 49.373 A 23.688 23.688 0 0 1 92.872 50.123 A 29.966 29.966 0 0 1 90.406 55.885 Q 88.868 58.643 86.817 61.036 A 29.781 29.781 0 0 1 83.603 64.268 A 26.298 26.298 0 0 1 82.471 65.186 L 81.983 64.698 Q 83.399 63.136 84.571 60.987 A 30.923 30.923 0 0 0 86.573 56.495 A 32.966 32.966 0 0 0 87.867 51.759 A 26.118 26.118 0 0 0 88.242 49.16 A 20.875 20.875 0 0 0 88.331 47.267 A 10.56 10.56 0 0 0 88.238 45.847 A 9.115 9.115 0 0 0 88.135 45.24 Q 87.94 44.288 87.72 43.409 A 251.502 251.502 0 0 1 87.404 42.132 A 219.81 219.81 0 0 1 87.305 41.725 A 6.918 6.918 0 0 1 87.11 40.089 A 3.421 3.421 0 0 1 87.228 39.164 A 2.507 2.507 0 0 1 87.989 37.94 A 3.051 3.051 0 0 1 89.572 37.209 A 4.204 4.204 0 0 1 90.235 37.159 Q 90.967 37.159 91.358 37.574 A 3.871 3.871 0 0 1 91.823 38.184 A 4.81 4.81 0 0 1 92.042 38.575 A 14.826 14.826 0 0 0 92.446 39.327 A 17.98 17.98 0 0 0 92.725 39.796 A 3.046 3.046 0 0 0 93.443 40.592 A 3.862 3.862 0 0 0 93.848 40.87 A 5.519 5.519 0 0 0 94.753 41.284 Q 95.215 41.449 95.756 41.567 A 10.344 10.344 0 0 0 96.192 41.651 A 62.822 62.822 0 0 0 98.398 41.99 A 71.994 71.994 0 0 0 99.17 42.091 L 102.295 42.481 A 14.077 14.077 0 0 1 103.866 42.765 A 10.897 10.897 0 0 1 105.103 43.141 A 6.222 6.222 0 0 1 106.2 43.67 A 4.785 4.785 0 0 1 107.129 44.41 A 2.694 2.694 0 0 1 107.827 45.746 A 3.948 3.948 0 0 1 107.911 46.583 A 7.359 7.359 0 0 1 107.789 47.926 A 6.144 6.144 0 0 1 107.438 49.134 A 5.729 5.729 0 0 1 107.422 49.171 A 50.307 50.307 0 0 0 106.421 53.346 A 21.98 21.98 0 0 0 106.006 57.569 A 21.113 21.113 0 0 0 106.082 59.399 A 16.171 16.171 0 0 0 106.275 60.865 Q 106.543 62.354 107.276 63.429 Q 108.008 64.503 109.229 65.089 Q 110.21 65.56 111.634 65.652 A 11.132 11.132 0 0 0 112.354 65.675 A 9.412 9.412 0 0 0 114.992 65.318 A 7.945 7.945 0 0 0 117.139 64.332 A 13.14 13.14 0 0 0 120.098 61.649 A 15.561 15.561 0 0 0 120.752 60.792 Z M 85.645 60.792 L 86.036 60.987 Q 84.766 62.843 82.984 64.454 A 20.749 20.749 0 0 1 79.078 67.237 A 22.113 22.113 0 0 1 74.634 69.093 Q 72.315 69.776 69.971 69.776 A 22.802 22.802 0 0 1 65.661 69.382 A 19.762 19.762 0 0 1 63.77 68.922 Q 60.889 68.067 58.741 66.31 A 12.149 12.149 0 0 1 55.41 61.974 A 14.012 14.012 0 0 1 55.372 61.891 Q 54.151 59.229 54.151 55.665 A 16.861 16.861 0 0 1 55.072 50.063 A 15.954 15.954 0 0 1 55.445 49.098 Q 56.739 46.046 59.009 43.775 Q 61.28 41.505 64.356 40.186 Q 67.432 38.868 70.948 38.868 A 10.516 10.516 0 0 1 73.127 39.087 A 9.231 9.231 0 0 1 74.048 39.332 A 7.597 7.597 0 0 1 75.966 40.25 A 6.918 6.918 0 0 1 76.563 40.699 A 6.342 6.342 0 0 1 78.248 42.921 A 6.506 6.506 0 0 1 78.772 44.721 A 8.461 8.461 0 0 1 78.858 45.948 A 8.598 8.598 0 0 1 78.65 47.877 A 6.834 6.834 0 0 1 78.028 49.561 Q 77.198 51.124 75.831 52.296 A 12.817 12.817 0 0 1 72.784 54.224 A 14.208 14.208 0 0 1 72.73 54.249 A 22.608 22.608 0 0 1 69.117 55.518 Q 67.237 56.007 65.406 56.226 A 32.74 32.74 0 0 1 63.654 56.391 A 24.344 24.344 0 0 1 62.061 56.446 L 60.889 56.446 Q 61.524 60.89 64.405 63.233 A 9.711 9.711 0 0 0 67.835 64.991 Q 69.203 65.394 70.831 65.52 A 19.891 19.891 0 0 0 72.364 65.577 Q 75.977 65.577 79.419 64.308 A 21.908 21.908 0 0 0 85.645 60.792 Z M 202.637 60.792 L 202.93 60.987 A 17.864 17.864 0 0 1 200.269 64.381 A 19.078 19.078 0 0 1 196.9 67.066 Q 195.069 68.214 192.994 68.849 Q 190.918 69.483 188.721 69.483 Q 185.987 69.483 183.863 68.556 A 10.197 10.197 0 0 1 180.912 66.627 A 9.614 9.614 0 0 1 180.298 65.992 A 11.08 11.08 0 0 1 178.301 62.681 A 12.841 12.841 0 0 1 178.101 62.135 A 14.25 14.25 0 0 1 177.404 58.727 A 17.228 17.228 0 0 1 177.344 57.276 A 17.307 17.307 0 0 1 178.026 52.384 A 16.242 16.242 0 0 1 178.174 51.905 A 19.769 19.769 0 0 1 180.469 47.144 A 22.748 22.748 0 0 1 183.912 43.067 Q 185.889 41.212 188.135 39.747 L 188.721 40.186 Q 186.329 43.018 184.839 46.534 Q 183.35 50.05 183.35 53.858 A 17.155 17.155 0 0 0 183.863 58.082 A 11.249 11.249 0 0 0 184.841 60.642 A 9.947 9.947 0 0 0 185.474 61.671 Q 186.573 63.233 188.282 64.161 Q 189.991 65.089 192.432 65.089 A 12.823 12.823 0 0 0 197.925 63.868 A 19.604 19.604 0 0 0 202.637 60.792 Z M 158.32 34.601 A 68.761 68.761 0 0 0 158.326 35.108 A 61.162 61.162 0 0 0 158.375 36.75 A 80.921 80.921 0 0 0 158.472 38.551 A 75.721 75.721 0 0 0 158.625 40.498 A 93.102 93.102 0 0 0 158.838 42.579 A 75.24 75.24 0 0 0 159.473 46.974 A 31.824 31.824 0 0 0 165.04 40.479 A 37.043 37.043 0 0 0 168.799 32.789 A 45.23 45.23 0 0 0 170.923 24.098 A 65.578 65.578 0 0 0 171.572 15.828 A 72.778 72.778 0 0 0 171.583 14.601 A 41.171 41.171 0 0 0 171.581 14.259 Q 171.577 13.787 171.563 13.152 A 130.989 130.989 0 0 0 171.558 12.94 Q 171.534 11.915 171.387 10.743 A 23.581 23.581 0 0 0 170.972 8.399 Q 170.704 7.227 170.24 6.275 A 5.254 5.254 0 0 0 169.641 5.312 A 4.361 4.361 0 0 0 169.068 4.713 A 2.495 2.495 0 0 0 167.383 4.102 A 3.602 3.602 0 0 0 165.027 4.988 A 5.719 5.719 0 0 0 164.136 5.934 A 13.803 13.803 0 0 0 162.918 7.869 Q 162.276 9.091 161.744 10.597 Q 160.743 13.429 160.084 16.847 A 102.745 102.745 0 0 0 159.246 21.823 A 89.38 89.38 0 0 0 159.034 23.414 A 106.944 106.944 0 0 0 158.721 26.222 Q 158.593 27.542 158.517 28.72 A 62.337 62.337 0 0 0 158.497 29.054 A 181.309 181.309 0 0 0 158.436 30.135 Q 158.365 31.475 158.353 32.194 A 16.177 16.177 0 0 0 158.35 32.472 Q 158.309 33.367 158.32 34.601 Z M 60.743 53.858 L 60.743 54.981 L 61.963 54.981 A 12.012 12.012 0 0 0 64.712 54.652 A 14.11 14.11 0 0 0 65.577 54.42 A 10.906 10.906 0 0 0 68.921 52.76 A 9.358 9.358 0 0 0 71.387 50.05 A 6.789 6.789 0 0 0 72.348 46.909 A 8.275 8.275 0 0 0 72.364 46.388 A 7.727 7.727 0 0 0 72.233 44.928 Q 72.03 43.871 71.509 43.067 A 2.719 2.719 0 0 0 69.955 41.934 Q 69.343 41.749 68.555 41.749 A 5.909 5.909 0 0 0 66.632 42.051 A 5.117 5.117 0 0 0 64.918 43.043 A 9.956 9.956 0 0 0 62.619 45.984 A 11.383 11.383 0 0 0 62.501 46.217 A 15.978 15.978 0 0 0 61.158 50.172 A 23.957 23.957 0 0 0 60.876 51.884 Q 60.776 52.68 60.751 53.393 A 13.298 13.298 0 0 0 60.743 53.858 Z M 15.43 54.249 A 32.949 32.949 0 0 0 22.974 53.272 A 33.5 33.5 0 0 0 30.079 50.636 Q 26.807 49.024 23.072 48.219 Q 19.336 47.413 15.674 47.218 Q 15.577 48.976 15.528 50.733 L 15.43 54.249 Z M 188.968 30.152 A 4.594 4.594 0 0 0 189.258 28.565 Q 189.258 27.345 188.477 26.563 A 2.562 2.562 0 0 0 187.344 25.901 A 3.36 3.36 0 0 0 186.426 25.782 Q 185.45 25.782 184.546 26.246 A 6.106 6.106 0 0 0 182.935 27.442 Q 182.227 28.175 181.788 29.127 A 5.261 5.261 0 0 0 181.709 29.307 A 4.508 4.508 0 0 0 181.348 31.056 A 3.876 3.876 0 0 0 181.375 31.521 A 2.872 2.872 0 0 0 182.105 33.155 A 2.437 2.437 0 0 0 183.218 33.859 A 3.137 3.137 0 0 0 184.131 33.985 A 3.857 3.857 0 0 0 184.737 33.938 A 4.188 4.188 0 0 0 186.036 33.497 Q 186.963 33.009 187.671 32.252 Q 188.379 31.495 188.819 30.518 A 5.468 5.468 0 0 0 188.968 30.152 Z M 212.357 30.152 A 4.594 4.594 0 0 0 212.647 28.565 A 3.716 3.716 0 0 0 212.605 28 A 2.698 2.698 0 0 0 211.939 26.563 A 2.285 2.285 0 0 0 210.785 25.879 A 3.313 3.313 0 0 0 209.961 25.782 Q 208.985 25.782 208.082 26.246 A 6.106 6.106 0 0 0 206.47 27.442 Q 205.762 28.175 205.323 29.127 A 5.261 5.261 0 0 0 205.244 29.307 A 4.508 4.508 0 0 0 204.883 31.056 A 3.994 3.994 0 0 0 204.933 31.699 A 2.92 2.92 0 0 0 205.591 33.155 A 2.261 2.261 0 0 0 206.729 33.878 A 3.114 3.114 0 0 0 207.569 33.985 A 3.902 3.902 0 0 0 209.449 33.497 Q 210.352 33.009 211.06 32.252 Q 211.768 31.495 212.208 30.518 A 5.468 5.468 0 0 0 212.357 30.152 Z M 5.616 50.147 Q 5.616 50.88 6.031 51.441 Q 6.446 52.003 7.105 52.442 A 6.747 6.747 0 0 0 8.005 52.944 A 8.361 8.361 0 0 0 8.619 53.199 A 12.517 12.517 0 0 0 10.401 53.712 Q 10.352 52.052 10.328 50.489 A 200.022 200.022 0 0 1 10.303 47.364 A 11.732 11.732 0 0 0 8.594 47.682 A 9.303 9.303 0 0 0 7.714 47.96 A 7.312 7.312 0 0 0 7.105 48.219 A 3.545 3.545 0 0 0 6.457 48.617 A 2.904 2.904 0 0 0 6.031 49.024 A 1.684 1.684 0 0 0 5.616 50.147 Z" vector-effect="non-scaling-stroke"/></g></svg>